<svg xmlns="http://www.w3.org/2000/svg" viewBox="0 0 480 340" fill="none">
  <defs>
    <linearGradient id="beta-bg" x1="0" y1="0" x2="480" y2="340" gradientUnits="userSpaceOnUse">
      <stop stop-color="#EEF4FE"/><stop offset="1" stop-color="#DCE9FB"/>
    </linearGradient>
    <filter id="beta-f" x="-20%" y="-20%" width="140%" height="140%">
      <feDropShadow dx="0" dy="18" stdDeviation="22" flood-color="#1B3A66" flood-opacity="0.18"/>
    </filter>
  </defs>
  <rect width="480" height="340" rx="26" fill="url(#beta-bg)"/>
  <circle cx="402" cy="256" r="50" fill="#F5B301" opacity="0.3"/>
  <circle cx="64" cy="80" r="16" fill="#1B5FCC" opacity="0.22"/>
  <g filter="url(#beta-f)">
    <path d="M206 70h68v16h-8v62l62 104a20 20 0 0 1-17 30H169a20 20 0 0 1-17-30l62-104V86h-8z" fill="#fff"/>
    <path d="M188 200h104l38 64a10 10 0 0 1-9 15H159a10 10 0 0 1-9-15z" fill="#1B5FCC"/>
    <circle cx="214" cy="240" r="10" fill="#fff" opacity="0.7"/><circle cx="252" cy="256" r="7" fill="#fff" opacity="0.7"/><circle cx="268" cy="226" r="5" fill="#fff" opacity="0.7"/>
    <rect x="300" y="84" width="92" height="40" rx="20" fill="#E01B22"/>
    <text x="346" y="111" text-anchor="middle" font-family="Arial,sans-serif" font-size="20" font-weight="700" fill="#fff">BETA</text>
  </g>
</svg>
